<svg width="45" height="48" viewBox="0 0 45 48" fill="none" xmlns="http://www.w3.org/2000/svg">
<g clip-path="url(#clip0_4_24)">
<path d="M0 24C0 10.7452 10.0736 0 22.5 0C34.9264 0 45 10.7452 45 24C45 37.2548 34.9264 48 22.5 48C10.0736 48 0 37.2548 0 24Z" fill="#0B0B0A"/>
<path fill-rule="evenodd" clip-rule="evenodd" d="M27.4377 9.59998C27.6733 11.3066 27.0221 12.9785 26.163 14.1614C25.2439 15.4303 23.6596 16.4116 22.1247 16.3604C21.8444 14.7265 22.5619 13.043 23.4349 11.9113C24.3925 10.6623 26.0337 9.70406 27.4377 9.59998ZM32.0488 33.6216C32.8402 32.328 33.1358 31.6754 33.75 30.2149C29.2822 28.4026 28.5663 21.6273 32.9879 19.0269C31.6392 17.2228 29.7441 16.177 27.9551 16.177C26.666 16.177 25.7828 16.5358 24.9799 16.862C24.3108 17.1339 23.6974 17.383 22.9514 17.383C22.1453 17.383 21.4314 17.11 20.6839 16.8241C19.8625 16.51 19.0005 16.1803 17.9308 16.1803C15.9233 16.1803 13.7863 17.4888 12.4315 19.7257C10.527 22.8763 10.8519 28.7991 13.9403 33.8446C15.0442 35.6504 16.5191 37.6792 18.4482 37.6973C19.2486 37.7058 19.7813 37.451 20.3577 37.1752C21.0175 36.8596 21.7345 36.5165 22.9761 36.5095C24.2249 36.5015 24.9307 36.8487 25.5817 37.169C26.1433 37.4453 26.6641 37.7016 27.4578 37.6924C29.3884 37.6759 30.9449 35.4273 32.0488 33.6216Z" fill="white"/>
</g>
<defs>
<clipPath id="clip0_4_24">
<rect width="45" height="48" fill="white"/>
</clipPath>
</defs>
</svg>
